<svg xmlns="http://www.w3.org/2000/svg" width="600" height="340" viewBox="0 0 600 340">
  <rect width="600" height="340" fill="#F2EBE0" rx="12"/>
  <rect x="30" y="30" width="260" height="180" fill="#FFFFFF" rx="8" stroke="#E8DDD0" stroke-width="2"/>
  <rect x="30" y="30" width="260" height="44" fill="#C4943A" rx="8"/>
  <rect x="0" y="62" width="290" height="12" fill="#C4943A"/>
  <text x="160" y="58" text-anchor="middle" font-family="monospace" font-size="14" fill="#FFFFFF" font-weight="bold">LumyBot — RAG Chat</text>
  <rect x="50" y="90" width="180" height="10" fill="#E8DDD0" rx="5"/>
  <rect x="50" y="110" width="220" height="10" fill="#E8DDD0" rx="5"/>
  <rect x="50" y="130" width="160" height="10" fill="#E8DDD0" rx="5"/>
  <rect x="160" y="155" width="100" height="32" fill="#C4943A" rx="6"/>
  <text x="210" y="175" text-anchor="middle" font-family="Arial" font-size="12" fill="#FFF">Send Query</text>
  <circle cx="420" cy="120" r="70" fill="#C4943A" opacity="0.15"/>
  <circle cx="420" cy="120" r="45" fill="#C4943A" opacity="0.25"/>
  <circle cx="420" cy="120" r="25" fill="#C4943A" opacity="0.6"/>
  <text x="420" y="126" text-anchor="middle" font-family="Arial" font-size="11" fill="#FFF" font-weight="bold">RAG</text>
  <line x1="310" y1="100" x2="376" y2="110" stroke="#C4943A" stroke-width="1.5" opacity="0.5"/>
  <line x1="310" y1="120" x2="376" y2="120" stroke="#C4943A" stroke-width="1.5" opacity="0.5"/>
  <line x1="310" y1="140" x2="376" y2="130" stroke="#C4943A" stroke-width="1.5" opacity="0.5"/>
  <text x="300" y="310" text-anchor="middle" font-family="Arial" font-size="16" fill="#8B7355" font-weight="bold">Webchat LumyBot</text>
  <text x="300" y="330" text-anchor="middle" font-family="Arial" font-size="11" fill="#8B7355">FastAPI · Hybrid RAG · BM25 + Semantic + Vector</text>
</svg>
