<svg xmlns="http://www.w3.org/2000/svg" width="600" height="340" viewBox="0 0 600 340">
  <rect width="600" height="340" fill="#F0F5EE" rx="12"/>
  <rect x="40" y="40" width="180" height="160" fill="#E8F0E4" rx="8" stroke="#C8DFC2" stroke-width="2"/>
  <ellipse cx="130" cy="95" rx="55" ry="42" fill="#6B8F5E" opacity="0.7"/>
  <ellipse cx="110" cy="110" rx="40" ry="30" fill="#4A7040" opacity="0.8"/>
  <circle cx="140" cy="100" r="12" fill="#C4943A" opacity="0.9"/>
  <circle cx="115" cy="120" r="8" fill="#C4943A" opacity="0.7"/>
  <circle cx="150" cy="115" r="6" fill="#A07A2E" opacity="0.8"/>
  <text x="130" y="195" text-anchor="middle" font-family="Arial" font-size="10" fill="#4A7040">Diseased Leaf</text>
  <path d="M225 120 L310 120" stroke="#C4943A" stroke-width="2" stroke-dasharray="5,3"/>
  <text x="268" y="112" text-anchor="middle" font-family="Arial" font-size="9" fill="#8B7355">VGG16</text>
  <rect x="310" y="65" width="200" height="130" fill="#FFFFFF" rx="8" stroke="#E8DDD0" stroke-width="2"/>
  <rect x="310" y="65" width="200" height="36" fill="#C4943A" rx="8"/>
  <rect x="310" y="89" width="200" height="12" fill="#C4943A"/>
  <text x="410" y="87" text-anchor="middle" font-family="Arial" font-size="11" fill="#FFF" font-weight="bold">Diagnosis Result</text>
  <text x="345" y="122" font-family="Arial" font-size="10" fill="#C4943A" font-weight="bold">Disease:</text>
  <text x="395" y="122" font-family="Arial" font-size="10" fill="#1C1410">Black Spot</text>
  <text x="345" y="138" font-family="Arial" font-size="10" fill="#C4943A" font-weight="bold">Confidence:</text>
  <text x="415" y="138" font-family="Arial" font-size="10" fill="#1C1410">94.3%</text>
  <text x="345" y="154" font-family="Arial" font-size="10" fill="#C4943A" font-weight="bold">Treatment:</text>
  <text x="410" y="154" font-family="Arial" font-size="10" fill="#1C1410">Fungicide A</text>
  <rect x="330" y="168" width="160" height="20" fill="#C4943A" opacity="0.15" rx="4"/>
  <text x="410" y="181" text-anchor="middle" font-family="Arial" font-size="9" fill="#8B7355">Fertilizer recommendation</text>
  <text x="300" y="308" text-anchor="middle" font-family="Arial" font-size="16" fill="#8B7355" font-weight="bold">Rose Crop Disease Detection</text>
  <text x="300" y="328" text-anchor="middle" font-family="Arial" font-size="11" fill="#8B7355">VGG16 · Deep Learning · Real-time Diagnosis</text>
</svg>
