<svg xmlns="http://www.w3.org/2000/svg" width="600" height="340" viewBox="0 0 600 340">
  <rect width="600" height="340" fill="#F0EBF5" rx="12"/>
  <circle cx="300" cy="130" r="60" fill="#C4943A" opacity="0.12"/>
  <circle cx="300" cy="130" r="42" fill="#C4943A" opacity="0.2"/>
  <circle cx="300" cy="130" r="28" fill="#C4943A"/>
  <text x="300" y="137" text-anchor="middle" font-family="Arial" font-size="22" fill="#FFF">🎙</text>
  <rect x="155" y="80" width="5" height="30" fill="#C4943A" rx="2" opacity="0.4"/>
  <rect x="165" y="65" width="5" height="50" fill="#C4943A" rx="2" opacity="0.5"/>
  <rect x="175" y="75" width="5" height="38" fill="#C4943A" rx="2" opacity="0.6"/>
  <rect x="185" y="60" width="5" height="55" fill="#C4943A" rx="2" opacity="0.7"/>
  <rect x="195" y="70" width="5" height="42" fill="#C4943A" rx="2" opacity="0.8"/>
  <rect x="205" y="80" width="5" height="28" fill="#C4943A" rx="2" opacity="0.6"/>
  <rect x="395" y="80" width="5" height="30" fill="#8B7355" rx="2" opacity="0.4"/>
  <rect x="405" y="65" width="5" height="50" fill="#8B7355" rx="2" opacity="0.5"/>
  <rect x="415" y="75" width="5" height="38" fill="#8B7355" rx="2" opacity="0.6"/>
  <rect x="425" y="60" width="5" height="55" fill="#8B7355" rx="2" opacity="0.7"/>
  <rect x="435" y="70" width="5" height="42" fill="#8B7355" rx="2" opacity="0.8"/>
  <rect x="445" y="80" width="5" height="28" fill="#8B7355" rx="2" opacity="0.6"/>
  <rect x="80" y="200" width="120" height="40" fill="#FFFFFF" rx="8" stroke="#E8DDD0" stroke-width="1.5"/>
  <text x="140" y="218" text-anchor="middle" font-family="Arial" font-size="10" fill="#C4943A" font-weight="bold">Vapi STT</text>
  <text x="140" y="232" text-anchor="middle" font-family="Arial" font-size="9" fill="#8B7355">Speech-to-Text</text>
  <rect x="240" y="200" width="120" height="40" fill="#FFFFFF" rx="8" stroke="#E8DDD0" stroke-width="1.5"/>
  <text x="300" y="218" text-anchor="middle" font-family="Arial" font-size="10" fill="#C4943A" font-weight="bold">LLM Router</text>
  <text x="300" y="232" text-anchor="middle" font-family="Arial" font-size="9" fill="#8B7355">OmniDimension</text>
  <rect x="400" y="200" width="120" height="40" fill="#FFFFFF" rx="8" stroke="#E8DDD0" stroke-width="1.5"/>
  <text x="460" y="218" text-anchor="middle" font-family="Arial" font-size="10" fill="#C4943A" font-weight="bold">ElevenLabs TTS</text>
  <text x="460" y="232" text-anchor="middle" font-family="Arial" font-size="9" fill="#8B7355">Text-to-Speech</text>
  <line x1="200" y1="220" x2="240" y2="220" stroke="#C4943A" stroke-width="1.5"/>
  <line x1="360" y1="220" x2="400" y2="220" stroke="#C4943A" stroke-width="1.5"/>
  <text x="300" y="308" text-anchor="middle" font-family="Arial" font-size="16" fill="#8B7355" font-weight="bold">AI Outbound Calling Agent</text>
  <text x="300" y="328" text-anchor="middle" font-family="Arial" font-size="11" fill="#8B7355">Vapi · ElevenLabs · OmniDimension · Real-time STT/TTS</text>
</svg>
